<svg id="Calque_2" data-name="Calque 2" xmlns="http://www.w3.org/2000/svg" viewBox="0 0 1042.51 1657.98"><defs><style>.cls-1{fill:#87844e;}.cls-2{fill:#e0decd;}.cls-3{fill:#b23f9c;}.cls-4{fill:#511b1f;}.cls-5{fill:#c6be5d;}.cls-6{fill:#7c1e1e;}.cls-7{fill:#a09e60;}.cls-8{fill:#e5e4dc;}.cls-15,.cls-16,.cls-17,.cls-18,.cls-19,.cls-22,.cls-23,.cls-24,.cls-9{fill:none;}.cls-12,.cls-15,.cls-16,.cls-17,.cls-18,.cls-19,.cls-20,.cls-21,.cls-22,.cls-23,.cls-24,.cls-9{stroke:#000;}.cls-12,.cls-17,.cls-20,.cls-21,.cls-22,.cls-9{stroke-miterlimit:10;}.cls-15,.cls-9{stroke-width:3px;}.cls-10{fill:#7c0000;}.cls-11{fill:#c4c4c2;}.cls-12{fill:#f7a706;}.cls-13{fill:#20e229;}.cls-14{fill:#1d0e00;}.cls-15,.cls-16,.cls-18,.cls-19,.cls-23,.cls-24{stroke-linecap:round;stroke-linejoin:round;}.cls-16{stroke-width:7px;}.cls-17,.cls-24{stroke-width:2px;}.cls-18{stroke-width:6px;}.cls-19,.cls-22{stroke-width:4px;}.cls-20{fill:#498eff;}.cls-21{fill:#d34646;}</style></defs><path class="cls-1" d="M684.71,1029.42l.5-.38,79.16-58.73,14.69,16.42,18.32-15.86,10.36-12.94v-4l-37.58-37.16-23.94-8.31-22.36,4.8,25.27,40.1L689.2,991.55s.45,12.73.57,13.62S684.71,1029.42,684.71,1029.42Z" transform="translate(-27.79 -153.38)"/><polygon class="cls-1" points="364.75 1135.49 554.55 1057.75 582.26 1050.23 471.8 1120.9 385.59 1153.68 364.75 1135.49"/><polygon class="cls-1" points="221.6 938.41 287.77 907.74 252.58 835.12 277.68 827.5 305.35 896.85 404.6 848.25 386.57 825.38 401.93 792.27 431.31 842.17 520.78 788.07 480.66 720.47 505.46 719.28 545.3 780.05 556.02 766.77 581 775.36 561.71 800.05 592.68 847.49 589.84 868.66 598.7 888.01 621.86 892.58 637.78 892.58 703.15 964.33 684.35 984.66 615.76 907.87 513.58 970.68 578.85 1053.26 570.56 1050.89 546.83 1061.06 490.22 982.93 382.15 1038.99 439.34 1125.89 416.87 1136.13 357.22 1051.25 291.2 1078.2 268.75 1059.57 345.95 1030.44 297.8 932.5 227.25 966.48 221.88 938.75 221.6 938.41"/><path class="cls-2" d="M111.61,625.34,88.87,594.26l-3.53-42.19L103,513.22l.76-10.79L99.11,464l2.77-23.24,9.73-37.26,36-35.66,13.2-11.59-8.15-27.41L157.21,307l19.52-23.46,7-20-6.82-16.2L163,220.72,170.47,192l24.82-26.62L224,159.52l47.27,2.55L312,194.28,360,213.23,370.18,195l28-3.41,31.45,25.2,18.57,27.29,51.35,21.79,32.31,15.85,21.5,31.89v29.56l-15.16,31.07L568,375.61l33,29.18L609.09,451l-50,22.74-68.24,91.4-31.64,9.78-26.15-5.5-98.9-30.88L255,541.71l-57.22,21.48-21.22,21.08S118.07,611.89,111.61,625.34Z" transform="translate(-27.79 -153.38)"/><path class="cls-3" d="M180.33,578.45l32.79-23.65,47.1-15.57h71.12l79.18,15.57,49.17,16.7h39.92l22.13,24.87v34.27l-5,24.72,37.08,31.49,5.94,33.38-11.65,43-23.21,31L516.74,805l-5.14,32.59-39,33.93-37,33.67-4.93,25.71L429.5,949l-7.58,22.47-20.46,19.7c-2.38-1.89-26.15,12.89-26.15,12.89l-61.76-17.81-33.92,3.79-33.52,26.46-6.59,31.39,15.92,63.66L252.32,1152l-20.12,18-31.33,8.3L167,1174.74l-17-18.2-9.82-38.82L155.9,1080l6.07-31.62s-4.17-25.77-4.55-27.28-13.64-38-13.64-38L126.72,948,93.38,923.74,73.29,887.36,61.92,854.77l-4.92-36L38.43,795.66l4.17-30,29.47-33,10.72-9,18.54-22.74,7.58-19.33-1.13-19.7L95.61,650.14l22.08-29.94L179.77,580" transform="translate(-27.79 -153.38)"/><polygon class="cls-4" points="221.88 629.6 257.88 598.52 276.07 596.25 284.79 607.62 285.93 626.18 285.93 642.86 276.07 664.08 260.54 675.98 234.01 685.17 218.6 679.11 215.44 661.93 216.71 649.3 221.88 629.6"/><polygon class="cls-5" points="448.37 417.94 465.1 385.55 525.44 325.43 598.1 295.17 643.08 297.64 686.14 313.3 749 318.1 802.3 335.03 868.24 384.54 899.68 451.24 912.48 548.5 901.84 598.27 873.04 641.22 867.99 675.32 869 702.61 839.44 726.35 818.47 738.73 813.42 763.57 801.29 785.97 773.2 791.89 743.44 763.57 708.58 755.91 680.42 768.29 665.13 791.03 660.83 822.05 661.98 853.68 651.48 881.83 637.08 892.58 615.86 892.58 596.16 881.83 588.58 858.48 596.66 830.18 605.5 809.11 601.46 782.18 552.96 769.45 518.87 744.29 503.19 720.79 457.97 712.96 481.18 686.66 488.33 651.42 513.58 627.07 529.34 581.32 529.34 548.25 512.21 517.93 488.64 499.19 495.19 465.1 483.74 426.48 448.37 417.94"/><polygon class="cls-4" points="289.72 439.36 262.56 439.36 249.02 453.3 248.12 465.56 247.12 473.39 253.61 486.84 267.17 494.23 296.7 491.09 309.22 477.09 311.46 463.23 319.51 457.17 302.96 444.1 289.72 439.36"/><polygon class="cls-4" points="67.23 558.73 82.05 519.32 71.82 499.19 54.41 492.42 24.45 520.46 5.65 548.12 5.65 571.05 17.44 587.15 29.95 591.89 67.23 558.73"/><polygon class="cls-6" points="608.28 293.33 643.51 237.38 713.32 145.74 762.17 121.23 795.16 119.28 838.43 149.85 924.07 213.51 990.77 266.56 1024.62 305.72 1038.26 342.61 1036.24 371.4 1026.39 396.92 1005.67 421.68 948.07 442.82 903.61 461.34 851.82 367.62 778.56 325.68 709.98 315.12 608.28 293.33"/><path class="cls-4" d="M109.84,827.69s33.73-37.45,35.62,9.7L147,858.58l-23.86,15L109.84,872l-7.58-8.09L100,846.26Z" transform="translate(-27.79 -153.38)"/><polygon class="cls-7" points="252.74 835.47 287.42 908.56 225.64 937.62 211.08 896.38 218.09 864.35 240.06 839.53 252.74 835.47"/><polygon class="cls-7" points="274.05 825.38 274.28 825.89 305.38 894.86 404.6 848.25 388.24 826.9 347.98 849.95 274.05 825.38"/><polygon class="cls-7" points="479.69 716.5 520.78 788.07 431.31 842.17 401.93 793.33 402.39 766.52 412.75 741.26 441 719.03 459.77 713.27 479.69 716.5"/><polygon class="cls-7" points="526.27 756.73 532.42 766.3 545.3 780.05 556.68 768.39 526.27 756.73"/><polyline class="cls-7" points="345.38 1030.42 345.38 1030.42 276.44 1057.23 231.84 965.27 297.89 933.15"/><polygon class="cls-7" points="287.77 1080.21 356.87 1051.87 405.13 1117.74 363 1136.13 287.77 1080.21"/><path class="cls-8" d="M308.41,1224.07l-2.65-7.58-9.22-3.53L258,1159.65l-6.22,27.29v46.23l7.89,29.82,24.15,36.12,24.63,54.56,13.26,41.69L352,1476.45l20.46,57.6,11.75,44,9.85,47s4.17,60.63,4.55,62.91,12.88,49.64,12.88,49.64l23.12,48.12,27.28,20.09,34.11-6.07,31.07-28,42.45-28.8,19.7-12.88,11.37-35.24,39.79-85.27s7.2-35.24,7.2-36.38S741.17,1453,741.17,1453l37.14-43.58,14.77-42.44.76-50.78-25.39-33.73-17.81-9.09-4.42,24.25,10.86,16.19-4.54,37.62L722.08,1381l-55.11,19-85-1.52-64-28-68.63-40.93Z" transform="translate(-27.79 -153.38)"/><polygon class="cls-7" points="321.77 926.91 373.83 1019.22 475.79 962.21 417.04 878.28 321.77 926.91"/><polygon class="cls-7" points="443.71 862.79 536.94 811.36 592.68 892.58 500.1 952.3 443.71 862.79"/><polyline class="cls-7" points="579.33 777.38 560.62 799.36 589.56 843.89 605.66 809.97 597.99 780.98"/><path class="cls-7" d="M446.54,1248.66l8,12.93c1.18,2.71,4.7.85,7.45-.25l112.61-46.89L519.26,1138h-4.58l-103.76,53.82Z" transform="translate(-27.79 -153.38)"/><polygon class="cls-7" points="513.58 970.68 578.47 1051.87 683.08 981.54 615.76 907.87 513.58 970.68"/><polygon class="cls-7" points="705.04 964.33 639.18 892.58 661.98 872.36 736.58 817.49 749.41 829.54 738.14 924.42 705.04 964.33"/><polygon class="cls-7" points="661.98 797.34 683.08 767.12 695.7 757.63 720.7 799.62 661.98 838.17 661.98 797.34"/><polyline class="cls-9" points="691.34 760.21 697.35 763.57 720.7 799.62 661.98 838.17 720.7 799.62 694.29 758.86"/><path class="cls-4" d="M302.6,952.49s11.37-6.82,11.12-11.62-1.27-16.67-1.27-16.67l-16.92-4.8-20.21,4.8L270,933.43l4.8,8Z" transform="translate(-27.79 -153.38)"/><path class="cls-4" d="M500.16,719.69s-54.4,34.27-20.84,76.17l18.94-1.77L511,780.33s5.83-9.48,1.79-19.71S507.74,725,500.16,719.69Z" transform="translate(-27.79 -153.38)"/><path class="cls-10" d="M272.11,319.35a97.89,97.89,0,0,0,1.13-14.93c0-.9,0-1.79,0-2.68-.81-8.39-3.34-16.63-6.29-25.33-3.37-10.46-8.61-20.52-16.07-28.69A29.39,29.39,0,0,0,232.57,241a26.73,26.73,0,0,0-5.52.58c-19.86,4.2-35.16,30.74-35.16,62.87,0,1,0,2,0,3a97,97,0,0,0,1.7,15.46h0c5.06,26,20.58,45,38.94,45a27,27,0,0,0,5.25-.52h0a30,30,0,0,0,11.24-4.91Z" transform="translate(-27.79 -153.38)"/><path class="cls-4" d="M737.77,310.08s-58.5-41.53-83.76-41.75-39.91-18-119.24,6.29c-12.86,3.94-2.87.49-2.87.49v6.65l21.31,28.32.25,26-8.08,33.86L573,379l27.2,21.47,8.89,33.6L612.33,451l23.74-4.31S704.48,330.57,737.77,310.08Z" transform="translate(-27.79 -153.38)"/><polygon class="cls-11" points="230.17 1005.26 248.28 1034.56 276.58 1068.16 339.74 1122.98 406.18 1166.94 503.44 1226.82 592.68 1251.83 653.24 1241.69 713.38 1214.69 730.3 1183.36 730.3 1152.54 716.41 1151.03 742.18 1073.72 782.35 1006.27 792.45 957 792.45 912.54 783.86 876.04 768.71 853.93 747.9 849.89 738.14 924.42 659.57 1006.27 553.97 1075.74 455.44 1125.26 388.24 1147.62 311.81 1094 271.9 1057.93 276.7 1056.67 245.04 992.61 230.17 1005.26"/><path d="M152,455.76,150.48,457a1.34,1.34,0,0,1-.27.17.61.61,0,0,1-.14.07l-.23.16a44.34,44.34,0,0,0-7.5,7.44c-8.66,10.36-16.4,21.58-24.2,32.71-5.52,8-10.9,16.07-16.19,24.2a45.85,45.85,0,0,0-2.33,4.22c-14.14,26.12-16.61,55.92,1.22,80.95a88,88,0,0,0,11.59,13.42c1.86,1.78,3.81,3.47,5.81,5.07l-.85.76c-1,.89-2.09,1.89-3.16,2.93q-2.83-2.25-5.51-4.69a90,90,0,0,1-20.16-26.25c-12.44-24.06-8.75-52.84,3.14-76.34a53.49,53.49,0,0,1,2.55-4.89q7.66-12.6,15.86-24.84c7.8-11.58,15.84-23.09,25.47-33.37,3.21-3.3,6.65-6.75,10.95-8.81l.67-.25c.44-.15.89-.3,1.34-.43A3.78,3.78,0,0,1,152,455.76Z" transform="translate(-27.79 -153.38)"/><path d="M109.05,510.94q-1.62-6.54-2.68-13.21a200.85,200.85,0,0,1-2.44-32c0-33.86,10.72-69,39.41-89.24a172.65,172.65,0,0,0,32-25.43c7.28-7.64,14.2-16.5,17.77-26.81a41.64,41.64,0,0,0,2.32-11.34,5.64,5.64,0,1,0-11.26-.56c-.8,11.75-8.78,22.43-16.81,31.12a162.74,162.74,0,0,1-21.82,19.08c-2.62,1.91-5.43,3.89-8.13,5.59a100.71,100.71,0,0,0-16.14,15.56C94.1,418,94.46,463.33,101.57,505.17c.76,4.49,1.6,8.94,2.49,13.33Z" transform="translate(-27.79 -153.38)"/><path d="M166.13,359.81c-1.77-3.13-3.51-6.51-5.06-10-5-11.44-8.09-24.3-3.78-34.7a22.34,22.34,0,0,1,4.48-6.53l1.23-1.32,2.48-2.67c6.72-7.36,13.5-14.71,18-23.87a32.43,32.43,0,0,0-.5-31.18,56.87,56.87,0,0,0-6.74-9.6c-.51-.71-1.15-1.62-1.63-2.45-11.36-18.94-7.52-39.11,7.5-54.6,4.26-4.62,11.73-10.28,15.61-12.91,13.05-5.87,27.84-7.16,42-6.28a136.57,136.57,0,0,1,17.63,2.42c1.94.48,4.75,1.14,6.69,1.61a37.64,37.64,0,0,1,15.55,7.88c18.44,15.12,46.45,38.21,69.82,43.48.54.1,1.08.19,1.63.27a27.63,27.63,0,0,0,5.61.26c3.07-.18,6.94-1.26,9.26-3.37a5.75,5.75,0,0,0,2-3.64,7.06,7.06,0,0,0-.9-4.08,6.22,6.22,0,0,0-8.55-2.06l-.12.08a8.1,8.1,0,0,1-4.53.75c-4-.28-7.73-1.62-11.74-3.27-20.2-9-38.13-23-55.52-36.84a48.68,48.68,0,0,0-16.9-8.94c-3.26-1-6.94-1.58-10.22-2.38a144.82,144.82,0,0,0-19.12-2.31c-14.87-.72-30.29,1-44.14,6.76a30.76,30.76,0,0,0-3.38,1.66,108.06,108.06,0,0,0-17.31,14.74c-17.38,18.62-21.35,42.93-7.64,65a38,38,0,0,0,2.2,3.16c5.06,5.73,9.57,12.6,9.75,20.43.33,14.69-13.84,28.3-23,38.82-12.65,13.67-8.26,33.33-.33,49.79,1.62,3.36,3.39,6.59,5.19,9.61Z" transform="translate(-27.79 -153.38)"/><path d="M343.09,231.74c5.41-8.45,11.2-16.68,15.49-25.56a18.3,18.3,0,0,0,1.81-5.24,13.28,13.28,0,0,1,.34-2.56c2.89-9.76,14.24-13.65,23.09-14.18,15.28-.85,29.32,7.8,39.34,18.6,5.28,5.9,10.39,12.14,12.92,19.81,2.4,6.51.55,13.74-.18,20.17-.84,9.65,3,18.94,7.39,27.48a199.75,199.75,0,0,0,12.87,20.8,2.86,2.86,0,0,1-4.6,3.39c-7.79-10-15.29-20.5-20.26-32.34a50.06,50.06,0,0,1-3.53-13,53.74,53.74,0,0,1,.4-13.37c1.38-8.09-1.39-13.47-6.29-19.61-6.93-8.76-16.33-17.06-27-20-6.4-1.89-14.19-1.78-19.9,1.58a8.54,8.54,0,0,0-3.37,3.19c-.59,11.36-13.84,27.85-21.5,36.43a4.52,4.52,0,0,1-7.06-5.59Z" transform="translate(-27.79 -153.38)"/><path d="M435.34,220.68c8.31,16.61,24.17,28.72,41.82,34a104.18,104.18,0,0,0,12.9,2.89,107.62,107.62,0,0,1,19.05,5.1c24.85,9.22,48.2,30.64,50,58.66.08,2.81-.07,6.72,0,9.55.43,17.26-3.49,32.78-13.4,47.11-14.76,21.36-35.51,36.68-56.66,50.76a4.5,4.5,0,0,1-5-7.46c5-3.55,10-7.13,14.82-10.9,18.51-14.61,37.42-31.27,45.62-53.76,3.48-9.65,3.43-20.17,3.21-30.41.84-24.68-20.77-44.41-42.71-52.36A96.44,96.44,0,0,0,488,269.41a99.45,99.45,0,0,1-19.12-4.77c-18.49-6.71-34.8-21-41.64-39.69-.16-.43-.28-.8-.46-1.38a4.49,4.49,0,0,1,3-5.61,4.55,4.55,0,0,1,5.57,2.72Z" transform="translate(-27.79 -153.38)"/><path d="M531.9,378.88c4.32-.13,8.7-.09,13,.19,16.49,1,32.54,5.52,43.87,18.32a29.54,29.54,0,0,1,2.38,2.82c.62.82,1.68,2.1,2.2,3,7.9,11.81,11.23,25.61,12.72,39.91a4,4,0,0,0,8-.46A96.71,96.71,0,0,0,608,409.25a62.34,62.34,0,0,0-21-28,73.17,73.17,0,0,0-35.57-13,77.52,77.52,0,0,0-12.28-.23Z" transform="translate(-27.79 -153.38)"/><path d="M202.07,579.81c-4.49,3.27-9.43,5-14.44,6.6-4.34,1.68-10.31,3.69-14.47,5.54-19.77,8.28-38.86,19.14-54.92,33.43l-.85.76c-1,.89-2.09,1.89-3.16,2.93-1.78,1.72-3.57,3.55-5.08,5.2a82.42,82.42,0,0,0-9.55,12.06A2.47,2.47,0,0,1,95.27,644a96.29,96.29,0,0,1,13.45-19.6q1.78-2.07,3.71-4.07c12.13-12.81,27.29-23.63,41.58-31.54a194.39,194.39,0,0,1,21.92-10.66c4.3-1.81,10.67-4.61,15.23-5.6a37.61,37.61,0,0,1,8.11-1.18A4.7,4.7,0,0,1,202.07,579.81Z" transform="translate(-27.79 -153.38)"/><path d="M192.07,525.56c16.85-24.78,46.71-38.62,75.66-43A174.17,174.17,0,0,1,302.17,481c4.2.21,10.3.47,14.46.34A166.6,166.6,0,0,0,359,474.5a209.21,209.21,0,0,0,46.14-19.82c2-1.17,4.07-2.45,6-3.74a7.35,7.35,0,0,1,8.05,12.31c-1.08.69-2.46,1.52-3.55,2.15a210.48,210.48,0,0,1-24.18,11.85c-24.8,10.28-51.64,16.57-78.6,15.73-2.54,0-8.74-.51-11.37-.69a166.24,166.24,0,0,0-28.75.21c-23.53,2.25-47.14,10.72-64.67,26.93a63.39,63.39,0,0,0-9.29,10.49c-3,4.12-9.29.14-6.7-4.36Z" transform="translate(-27.79 -153.38)"/><path d="M296,381a432.78,432.78,0,0,1,51.8-21.34A149.74,149.74,0,0,1,371,354c18.24-3.77,33.41-24.95,42.23-40.44.32-.59.7-1.29.92-1.75a9.23,9.23,0,1,1,16.58,8.12A138.25,138.25,0,0,1,405.12,351c-8.87,7.85-20,15-32.27,16.35-1.12.11-3.42.39-4.53.48-11.6,1.38-23.41,4.7-34.71,8.2-11.58,3.63-23.15,7.78-34.44,12.28A4,4,0,0,1,296,381Z" transform="translate(-27.79 -153.38)"/><path d="M272.11,319.35c-.37,1.56-.82,3.15-1.35,4.75-4.2,12.39-12.07,25.42-21.7,38.33-18.82,25.2-44.35,49.92-62.37,68.45a2,2,0,0,1-2.87-2.83c15.28-16.41,36.74-38.27,54-60.7,0,0,0,0,0,0,11.82-15.34,21.65-30.95,26.2-45.28,4.27-13.42,1.36-26.16-3.38-39.09-2.54-7.63-5.65-15.34-10.24-21.9a54.54,54.54,0,0,0-23.35-19.52,62,62,0,0,0-29.18-5.26c-.35.05-1.44.09-1.75.16-6.68.73-8-9-1.27-10,18.12-1.4,37,4.16,50.81,16.18a58.84,58.84,0,0,1,5.18,5.05c7.46,8.17,12.7,18.23,16.07,28.69,2.95,8.7,5.48,16.94,6.29,25.33A52.9,52.9,0,0,1,272.11,319.35Z" transform="translate(-27.79 -153.38)"/><path d="M179.74,578.28c6.38-10.14,16.08-17.8,26.14-24C241,533.63,283.08,530.76,322.82,533a449.53,449.53,0,0,1,50.69,6.42,661.39,661.39,0,0,1,66,15.81,7,7,0,1,1-4.08,13.35c-29.11-9.12-58.67-16.77-88.82-21.29-12-1.85-24.89-3.12-37-3.81-23.14-1-46.87.16-69.28,6.25-19.26,5.41-38.42,14.14-51.51,29.62a34,34,0,0,0-2.21,3.07c-2.79,4.32-9.36.53-6.87-4.09Z" transform="translate(-27.79 -153.38)"/><path d="M769.23,919.76c-14.11-6.15-30.93-8.36-45.51-2.74S698.68,936.81,695,952c-1.63,6.17-1.92,12.9-1.87,19.28l-.14,40.48a2.59,2.59,0,0,1-.05.56c-3.45,17.46-14.92,37.86-35.1,37.48-10.88,0-22.4-1.65-31.33-8.37-17-12.73-14.29-36.85-9.4-55a34.58,34.58,0,0,1,3.46-9c.52-.89,1-1.86,1.47-2.8a46.13,46.13,0,0,0,4-16.35,60.59,60.59,0,0,0,0-9.43c-.09-1.88-.51-4.44-.73-6.31-.16-.95-.34-1.89-.53-2.83-.62-3.08-1.4-6.11-2.32-9.11a121.13,121.13,0,0,0-7.49-18.49,7.6,7.6,0,1,1,13.93-6,149.48,149.48,0,0,1,7.3,27q.68,4,1,8.07c0,.07,0,.15,0,.24.06,1.38.23,4.08.28,5.23s-.05,4.29,0,5.51c-.12,2.91-.48,6.33-.9,9.18a58.64,58.64,0,0,1-5.86,17.78c-.76,1.5-1.79,2.95-2.6,4.42a26,26,0,0,0-2.22,5.51c-7.73,24-8,49,22.25,53.36,6.07.77,12.66,1.59,18.46-.87,10.72-4.56,16.35-16.5,19.35-27.26.25-.93.49-1.93.66-2.8l-.14-40.19c-.67-14.29,2.07-28.48,9.85-40.68,14.57-23.7,40.86-30,66.87-24a74.18,74.18,0,0,1,10.59,3.14C780.64,912.77,776.21,922.82,769.23,919.76Z" transform="translate(-27.79 -153.38)"/><path d="M637.18,941.37c-4.1-.43-8.27-1-12.48-1.64-39.8-6.31-83-23.84-99-61.84-.33-.76-.64-1.53-.94-2.3a5.85,5.85,0,0,1,2.17-7h0c2.39.22,4.78.39,7.17.54a5.85,5.85,0,0,1,1.6,2.46c.79,2.16,1.67,4.28,2.67,6.35a68.08,68.08,0,0,0,4.27,7.75c17.83,26.22,49.55,38.48,79.77,44.91,1.63.35,3.25.69,4.87,1,2.91.53,5.89,1,8.87,1.44q.68,4,1,8.07C637.17,941.2,637.18,941.28,637.18,941.37Z" transform="translate(-27.79 -153.38)"/><path d="M549.54,877.59c-3.62.19-7.37.32-11.2.37-4.13.07-8.38,0-12.68-.07-14.31-.42-29.27-2-43.16-5.62a118.56,118.56,0,0,1-13.71-4.4c2.59-1.64,5.17-3.21,7.72-4.74q2.73-1.64,5.33-3.53c2.88,1,5.79,1.93,8.68,2.73,1.45.4,2.91.78,4.37,1.15a209.12,209.12,0,0,0,32,5.13h0c2.39.22,4.78.39,7.17.54,1.08.07,2.15.13,3.23.18,4,.19,8.05.31,11.93.27A4,4,0,0,1,549.54,877.59Z" transform="translate(-27.79 -153.38)"/><path d="M452.41,571.05c4.81-4.84,12-4.68,18.31-5.53a80.76,80.76,0,0,1,19.43.49c32.23,5,41.48,31.7,37.16,61a172.67,172.67,0,0,1-9.4,35.68,4,4,0,0,1-7.61-2.49c4.54-16.8,8.62-34,6.86-51.21-2.55-26-21.61-33.46-45.34-31.25-5.91.21-11.89,3-17.71.72a4.56,4.56,0,0,1-1.7-7.39Z" transform="translate(-27.79 -153.38)"/><path d="M527.15,656c25.46,14.86,41.14,44.39,36.88,73.73-1.6,13.93-6.81,27.38-13.34,39.7a214,214,0,0,1-23.26,33.91,4,4,0,0,1-6.23-5c10.16-13.06,19.16-26.8,25.54-41.92a131.83,131.83,0,0,0,4.71-13.7,87.6,87.6,0,0,0,2.52-14c3-24.81-10.46-49-31.66-61.36l-.46-.26-.37-.19-.25-.14c-7-4.12-1.39-14.48,5.92-10.71Z" transform="translate(-27.79 -153.38)"/><path d="M522.82,804.5c-1.28,22.39-10.91,44.26-27.93,59a71.35,71.35,0,0,1-5.88,4.6c-2,1.41-4.27,2.86-6.51,4.19-1.3.79-2.59,1.53-3.81,2.21-12.93,7.42-25.34,15.92-35,27.16-4.42,5.33-10,13.24-9.39,20.08.15.47.38,1.15.48,1.63a62.14,62.14,0,0,1,.89,18.84c-1.71,22.25-14.37,42.82-34.57,52.9a4,4,0,0,1-3.75-7.07c17.43-9,28.11-27.17,29.21-46.57a52.69,52.69,0,0,0-1-16.07c-1.93-5.45-.38-10.87,1.59-15.85,8.2-18.14,25-31.13,41.68-41.66,2.59-1.64,5.17-3.21,7.72-4.74q2.73-1.64,5.33-3.53a68.1,68.1,0,0,0,13.42-12.84c11.47-14.44,16.37-33.67,15.08-52l-.08-.84-.08-.71c-.95-8.31,11.13-10.06,12.45-1.67.13,1.51.23,3,.28,4.53Q523.08,800.3,522.82,804.5Z" transform="translate(-27.79 -153.38)"/><path d="M370.79,1010c-11.15-4.18-22.46-8.21-33.76-12-9.74-3.12-19.38-6.39-29.4-8.21a28.49,28.49,0,0,0-3.44-.38c-16.56,0-32.63,6.7-43.35,19.31-7.26,8.48-12.11,18.87-15.14,29.68-2,6.31-1.56,13,.29,19.32,1.06,4.09,2.37,8.65,3.72,12.56a83,83,0,0,0,3.32,8.08,84,84,0,0,1,3,9.2c10.3,38.45,5.11,84.26-40.77,93.34a99.74,99.74,0,0,1-23.52,1.79c-25.68-1-45.72-14-51.1-40.09-4.07-20.83.5-42.69,10-61.41.52-1,1.56-2.93,2-3.93,3.84-7.68,5.14-16.27,5.3-24.9.05-23.46-7.32-47-16.77-68.37a2.5,2.5,0,0,1,4.5-2.2c13.18,28.41,27.52,73.23,10.77,102.42-15.86,31.72-17.34,83.08,27.08,89.23,14.59,2,32.53.38,45.36-7,25.94-15.26,24.1-50.61,17-76.07a68.88,68.88,0,0,0-4.59-12A129.05,129.05,0,0,1,236.7,1065l-1.27-4.45a45.15,45.15,0,0,1-1.7-20.13c4.08-20.56,14.86-40.84,32.86-52.48,12.63-8.06,28.18-12.36,42.92-10.71a128.83,128.83,0,0,1,13.95,3.06c17.69,4.8,34.85,10.68,52.1,16.79a6.86,6.86,0,1,1-4.77,12.87Z" transform="translate(-27.79 -153.38)"/><path d="M122.83,954.22c-12.3-5.8-22.82-15-31.71-25.13-26.05-30-36.27-70.31-37.52-109.19l1.81,3.18A55,55,0,0,1,40,807c-13.46-21.49-4.58-44.66,11.34-61.87L78,721.36a5.17,5.17,0,1,1,6.8,7.79L57.7,752.37l.4-.39C44.92,766,36.33,784.58,47.21,802.63A48,48,0,0,0,58,815c1.63,1.29,3.52,2.27,3.57,4.51,2.29,42.49,16.24,87.74,50.79,114.78a71.47,71.47,0,0,0,15.06,9.27c7,3.21,2.64,13.51-4.61,10.62Z" transform="translate(-27.79 -153.38)"/><path d="M91.37,708.68c8.56-12.72,19.83-35,9.55-49.09-3.51-4.7-8.81-7.35-14.31-9.23l-1.53-1.06a2,2,0,0,0,.18.21c-1.89-.65-4,.51-5.88,1.49l-2,1.2c-.67.5-2.21,1.7-2.86,2.18C66,661.72,59.06,670.86,52.43,680c-4.76,6.87-9.84,13.7-13.5,21.2-1.17,2.6-2.49,5.22-2.35,8,.1.47.1.4.17.46a2.36,2.36,0,0,0,.66.15c11.68-.57,31.8-17.88,39.43-26.81,4.16-4.83,8.21-10.31,10.07-16.33a3,3,0,0,1,5.73,1.75c-2.23,7.15-6.55,13-11.27,18.52-9.5,10.56-20.33,19.56-33.15,25.94-4.57,2-10.75,4.84-15.42,1.31a6.93,6.93,0,0,1-2.24-5c-.12-3.74,1.44-7.38,3-10.62A105.32,105.32,0,0,1,41.65,685c2.8-4.12,6-8.7,9-12.7,5.74-7.69,11.86-15.27,19.11-21.63,1.12-1.11,3-2.39,4.28-3.38l2.41-1.49c3.85-2.22,9.8-4.16,13.43-.1l-1.53-1.06c5.78,1.68,11.67,4.41,16,8.77,16.15,16.7,4.71,43.62-5.69,60.37-3.49,4.93-10.7-.09-7.3-5.07Z" transform="translate(-27.79 -153.38)"/><path d="M39.25,722.52c1.72,13.08,9.63,18.75,22.52,15a4,4,0,0,1,2.48,7.61c-15.28,6-29,.4-34.78-15.27a33.69,33.69,0,0,1-1.65-6c-.65-7.59,10.26-8.92,11.43-1.38Z" transform="translate(-27.79 -153.38)"/><path d="M530.29,271.45c33.86-13.32,71.44-16.58,107.33-11.24S707.83,281,736.78,303A5.09,5.09,0,1,1,730.6,311,226.33,226.33,0,0,0,686,284.15a203.17,203.17,0,0,0-101.87-16.76c-17.23,1.64-34.48,5.06-50.62,11.38a4,4,0,0,1-3.22-7.32Z" transform="translate(-27.79 -153.38)"/><path class="cls-12" d="M621.23,585.36,599.92,606l-10,16.67-9.09,20.09L592,653.57l14.78-27.29,18.75-31.73-4.15-10.28s-23.49,14.88-39.83,59c0,0,7.66,10.63,11.23,9.26s27.67-56,33.24-57" transform="translate(-27.79 -153.38)"/><path class="cls-13" d="M644.44,720.26l8.48,19.11,13,17.81,12.55,18.22-2.37,6.08L669.36,784l-22.74-23.75-21.13-30.6L635,714.29S642.18,715.15,644.44,720.26Z" transform="translate(-27.79 -153.38)"/><path class="cls-3" d="M811.78,720l-35.12,63.53L788,795.21l38.78-57.7S836.41,729.29,811.78,720Z" transform="translate(-27.79 -153.38)"/><path class="cls-4" d="M808.43,595.4l-42.81,36.19L768,647l44.23-39.16S818.85,596.73,808.43,595.4Z" transform="translate(-27.79 -153.38)"/><path class="cls-14" d="M671.32,535.34l18.94,48.25,13.08-3.85L687,524.28S670.75,521,671.32,535.34Z" transform="translate(-27.79 -153.38)"/><path d="M627,446.34c25.79-42,53.56-82.54,86.26-119.53,16.63-18.4,35-36.39,57.4-47.64,20.92-11.1,49.5-17.07,69.52-.91a29.13,29.13,0,0,1,3.91,3.79l-.9-.82c62.43,42.69,123.65,87.41,179.74,138.27,4.95,4.54,10.65,9.73,15.22,14.66,14.7,15.67,26.73,34.65,30.72,56.07,4.73,24.62-2.06,51-17.56,70.69l.59-.92a22.41,22.41,0,0,1-2.9,4.53c-4.52,5.72-10.43,10.24-16.25,14.55-11.48,8.08-24,14.62-36.62,20.5a498.7,498.7,0,0,1-58.11,22,3,3,0,0,1-2.32-.51,11.41,11.41,0,0,1-3.17-3.27c-2.52-3.16-3-9-1.64-12.16a3,3,0,0,1,1.57-1.77l3.86-1.22,7.71-2.44c25.42-8.29,51-16.82,75.23-28,8.8-4.25,18.44-9,25.4-15.53,19.41-24.89,23.32-58,9.16-86.43-5.61-11.67-13.6-22.19-22.48-31.61-7.17-7.23-15-14.36-22.59-21.14-53.47-47.08-111.17-89.43-170-129.54-5.84-6.23-14.1-9.8-22.56-10.68-24-2.23-48.77,12.67-66.58,27.87-37,33.32-65.11,75.42-92.08,117-6.47,10.24-9.6,23.39-18.84,31-2.94,2.43-4.83,1-9.27,2.54-3.58,1.2-4.36-6.11-2.41-9.34Z" transform="translate(-27.79 -153.38)"/><path d="M724.83,363.08c1.27,19.91,2.83,39.92,5.22,59.73.82,6.57,1.71,13.16,2.93,19.55a4.5,4.5,0,0,1-8.81,1.82c-2.82-13.36-4.51-26.69-6.15-40.16s-2.92-26.72-4.08-40.16c-.36-7.3,10.2-8.09,10.89-.78Z" transform="translate(-27.79 -153.38)"/><path d="M822.69,310.54c1.89,1.39,1.6,3,1.68,4.87l.15,4.93.39,9.87c.82,16.32,1.8,32.71,4.22,48.86,1.45,9.73,3.46,20.06,4,30,1,16.75.2,33.49-.18,50.18l-.35,10a4.5,4.5,0,0,1-9-.1c-.21-13.25-.19-26.52-.55-39.69-.13-6.58-.32-13.13-.87-19.5-.91-11.26-3.76-22.72-5.37-34.05-2.11-15-3.23-30.05-4-45.1-.16-4.49-.66-13.07-.64-17.52.8-4.39,7.37-5.53,10.45-2.72Z" transform="translate(-27.79 -153.38)"/><path d="M928.25,406.17c8.67,36.78,11,74.78,11,112.46a6.12,6.12,0,1,1-12.23-.27c.18-6.63.39-14.07.38-20.76.06-11.45-.32-23.16-1-34.59a417.59,417.59,0,0,0-5.51-48c-.42-2.26-.87-4.59-1.36-6.71-1.15-5.72,7.09-7.79,8.74-2.14Z" transform="translate(-27.79 -153.38)"/><path d="M922,587.64c30.11-14.86,60.57-29.51,89-47.39a87.47,87.47,0,0,0,7.61-5.67,6.17,6.17,0,0,1,9.2.46,6,6,0,0,1-1,8.49,71.59,71.59,0,0,1-6.3,4.66c-2.69,1.83-6.5,4.06-9.3,5.72-19.48,11-39.66,20.62-59.86,30.16q-12.74,6-25.55,11.74a4.5,4.5,0,0,1-3.79-8.17Z" transform="translate(-27.79 -153.38)"/><path d="M278.14,1148.28c-7,5.52-12.19,13.77-15.7,22.25-11.43,28.84-6,61.68,3.14,90.66l-.72-1.29c1.43,1.86,2.82,3.79,4.12,5.72A359.86,359.86,0,0,1,292.54,1307c24.4,48.22,38.65,100.39,58.68,150.32,15.17,37.37,28.26,76,37.87,115.28,1.91,7.29,4.67,18.74,6.48,26.14,2.36,9,2.59,18.45,3.05,27.61q1.23,19.85,4.14,39.53c5,33.73,13.56,67.08,27.48,98.25,6.68,15.26,17.64,31.34,34.77,34,17.93,2.64,35.87-8.13,49.27-19.64l1.15-1c.23-.23.77-.71,1-1,4-4,8.15-8,12.28-11.82,11.87-10.84,24-21.82,37.95-30.11a42.6,42.6,0,0,1,9.13-4.07,10.06,10.06,0,0,0,2-.7,12.23,12.23,0,0,0,3.92-3.55,47.21,47.21,0,0,0,5.69-10.11c5-11.79,8-24.57,10.45-37.2l.64-3.33c.09-.55.33-1.36.51-2,3.7-11.72,9.86-22.72,15.21-33.5,5-9.84,10.4-19.45,15.69-29.17,5-10.1,8.55-20.93,11.72-31.75a56.17,56.17,0,0,1,4.28-10.28c8.48-15.82,18.51-29.53,28.78-43.89,20.25-27.81,41.48-54.73,63.08-81.45q8.87-10.9,17.83-21.74c1.9-2.42,3.71-5.06,5.43-7.68,24-36.66,34.42-84,2.91-119.58l-3.93-4.36c-1.39-1.4-2.86-2.72-4.29-4.09-1.27-1.33-3.15-2.73-4.17-4.29-3.13-4.51-3.66-12.83,3.21-14.22a13.48,13.48,0,0,1,10.71,2.83c2.53,2.34,5.07,4.67,7.54,7.08,8,8.45,15.16,17.85,20.18,28.53,18.6,38.65,5.77,84.19-16.88,118.17a107.9,107.9,0,0,1-8.25,11.11c-32.61,39.24-65.35,78.58-94.84,120.11-5.34,7.76-10.52,15.38-14.54,23.4a31.76,31.76,0,0,0-1.5,3.5c-.38,1-1.1,3.46-1.43,4.47-3.73,11.67-8,23.25-13.88,34.07-.47.93-1.13,1.91-1.67,2.82l-.35.53.34-.55c-9,16.22-18.43,32.84-25.8,49.77l-1.06,2.76c-.1.25-.13.42-.19.6l-.16.55c-.1.4-.23.65-.33,1.2-1.14,5.51-2.28,11.15-3.68,16.64-3.93,14.78-10.54,39.62-25.18,47l-1.17.56-1.3.43a30,30,0,0,0-8,3.31,128.35,128.35,0,0,0-15.64,10.87,440.71,440.71,0,0,0-33.38,29.89c-16.53,14.52-38.6,27.19-61.41,23.57-20.32-3.08-34.75-20.94-42.61-38.42-15.2-33.28-24-68.81-29.2-104.8q-2.88-20.19-4-40.57c-.41-8.68-.44-17.23-2.59-25.66-1.78-7.4-4.4-18.72-6.27-26-9.32-39.11-21.86-76.9-36.73-114.27-24.17-62.14-40.82-127.86-76.46-184.81-2.33-3.65-4.66-7.27-7.26-10.71-4.69-10.4-7.79-21.59-10.54-32.81-6.24-27.5-6.47-58.46,8.71-83.5,3.38-5.37,7.31-10.61,12.35-14.62,9.44-6.14,18.59,6.9,9.8,13.71Z" transform="translate(-27.79 -153.38)"/><path d="M777.42,999.48c15.84-2.55,30,8.56,36.88,21.91,6.67,12.23,9.59,26.44,11.16,40a259.14,259.14,0,0,1,1.34,31.1c.3,7.51.19,15.24-.25,22.82-1.49,21.06-4.39,43-16.17,61.4-3.53,5.26-7.72,10.79-11.39,15.66-10.15,13.74-16.29,29.75-23,45.36-7.91,19.18-15.37,38.81-22.77,58.3l-.52,1.4q-.42,1.2-.75,2.43c-7.35,30-14.89,59.71-26.68,88.44-6.16,13.21-25.61,5.29-20.42-8.64,10.6-23.54,18.19-48.9,25.37-73.8l1.75-6.31a72.9,72.9,0,0,1,3.41-10.58c11.6-27.62,22.82-55.54,36.35-82.38a138.26,138.26,0,0,1,14.83-23.67c4.07-5.08,7.78-9.65,11.45-14.75,10.48-15.49,13.51-35.26,15.42-53.82.7-7.51.94-15.1.94-22.64.81-23.17.42-57.38-15.8-75.23-5-5.38-12.12-8.86-19.4-8.19-5.85,1-7.59-7.45-1.79-8.82Z" transform="translate(-27.79 -153.38)"/><path d="M790.79,1025.92c-.28,9.4-3.39,18.51-6.93,27.12-53.44,117.3-249.8,209.62-364.8,260.09-4.87,2.11-6-1.2-8.14-6.07s-6.65-6-1.63-8c113.71-46.84,307-134.48,365.13-246.11a95,95,0,0,0,7.39-20.27,39,39,0,0,0,1-6.53,4,4,0,0,1,8-.2Z" transform="translate(-27.79 -153.38)"/><path d="M275.51,1177.27a51.62,51.62,0,0,0,4.47,7.38c.86,1.19,1.8,2.66,2.7,3.74a203.73,203.73,0,0,0,15.45,17.67c19.8,20.43,42.45,38.36,65.09,55.5,7.62,5.41,15.68,11.41,23.25,16.77,5.38,3.69,18.52,12.65,23.68,16.19,12.41,8.06,27.64,18.19,40.24,25.9,18,11.31,39.13,23.86,57.43,34.63,44.89,27.85,98.4,40.41,151,36.23,52.28-3.77,94.56-23.38,91-82.78-.48-9.79,13.54-11,14.7-1.21.19,1.9.43,5.81.59,7.63.13,2.28.06,5.49.13,7.72-.15,3-.31,7.43-.79,10.39-3.21,28.12-20,50.08-45.19,62.33-24.47,12-52,15.24-78.93,15.55A255,255,0,0,1,542.81,1393c-18.39-7.11-35.69-17.12-52.35-27.59-9.53-6-23.6-14.26-32.8-20.46s-23.33-14.86-32.35-21.23c-20.71-14-43.14-29.92-62.77-45.38-7.18-5.45-15.7-12.53-22.63-18.31-12.36-10.26-24.52-21.44-35.89-32.8-10.71-11-21.49-22.83-29.91-35.77a66.26,66.26,0,0,1-6.17-11.56,4,4,0,0,1,7.57-2.6Z" transform="translate(-27.79 -153.38)"/><polyline class="cls-15" points="223.95 938.41 287.42 908.56 252.26 834.44"/><polyline class="cls-15" points="389.83 829.54 405.13 848.92 304.79 896.38 276.44 829.74"/><polyline class="cls-15" points="400.08 790.25 431.31 842.17 520.78 788.07 479.15 717.93"/><polyline class="cls-15" points="556.02 769.45 545.3 780.05 526.85 757.63"/><polyline class="cls-15" points="230.17 966.08 297.89 933.15 345.38 1030.42 276.44 1057.23 242.74 987.89 236.62 975.27"/><polygon class="cls-15" points="322.4 927.37 417.38 878.76 476.36 963.02 372.95 1019.7 322.4 927.37"/><polygon class="cls-15" points="444.19 862.96 500.1 952.3 593.55 892.55 536.94 811.36 444.19 862.96"/><polyline class="cls-15" points="578.23 780.05 560.62 799.87 585.6 838.17"/><polyline class="cls-15" points="572.11 1044.59 513.58 970.68 615.76 907.87 684.35 982.93"/><path class="cls-16" d="M575.55,1211.72c19.88-3.9,51.69-20.52,77.89-35.73,24.69-14.33,44.39-27.42,44.39-27.42" transform="translate(-27.79 -153.38)"/><polyline class="cls-9" points="639.18 895.01 700.03 960.73 739.65 911.79 749.41 829.54 736.58 817.49 660.45 873.49"/><polyline class="cls-15" points="372.95 1019.7 382.15 1038.99 418.91 1095.53 382.15 1038.99 383.13 1038.48 490.22 982.93 546.83 1061.06 435.76 1106.25"/><path class="cls-7" d="M504.15,1116.4" transform="translate(-27.79 -153.38)"/><path class="cls-7" d="M518,1136.32" transform="translate(-27.79 -153.38)"/><path class="cls-17" d="M775.69,995.58" transform="translate(-27.79 -153.38)"/><path class="cls-17" d="M766.25,912" transform="translate(-27.79 -153.38)"/><path d="M775.65,987.24c2.1-.44,3.49-1.91,5.06-3.09s3.07-2.48,4.58-3.75c6-5,11.87-10.4,16.68-16.55,2-2.69,4.63-6.34,4.27-9.61l.43.85-36.51-36,2.11-2.14,36.51,36,.4.4c1.48,9.7-20.13,26.25-27.38,32.18-1.54,1.27-3.29,2.22-4.37,4.13l-1.78-2.42Z" transform="translate(-27.79 -153.38)"/><path d="M112.43,828.32c-3.45,5.2-11.45,18.48-7.34,24.19,1.43,1.64,4.43,2.08,6.65,2.17,10.77.66,20.17-7.14,25.94-15.76.64-.94,1.27-2,1.84-3,2.84-7.14,12.55-3,9.29,3.75-7.72,13-21.69,24.56-37.66,22.93-7.17-.46-14-4.41-14.37-12.28-.19-9.49,5.57-18.26,10.83-25.62a3,3,0,0,1,4.82,3.58Z" transform="translate(-27.79 -153.38)"/><path d="M103.34,853.49c.31,9.1,4.38,18.93,15,16.57,9.81-2.1,18.1-8.55,25.94-14.65a4.19,4.19,0,0,1,5.24,6.55,126.33,126.33,0,0,1-13.92,9.18c-7.75,4.14-16.64,8.17-25.67,5.33-9.5-3.27-12.65-14.09-12.56-23.11a3,3,0,0,1,6,.13Z" transform="translate(-27.79 -153.38)"/><path class="cls-18" d="M309.34,626.19s-52.53,6.91-28-27a17.55,17.55,0,0,1,11.59-7.05c7-1,17.58-1.84,24.6,1.35" transform="translate(-27.79 -153.38)"/><path class="cls-18" d="M330.79,599.38s21.57,7.79,12.76,15.71c0,0-22.08,7.28-20.81,11.68" transform="translate(-27.79 -153.38)"/><path class="cls-18" d="M307,647.49c-32.14,2.06-32.19-22.15-32.19-22.15" transform="translate(-27.79 -153.38)"/><path class="cls-18" d="M347.3,634.53a35.24,35.24,0,0,1-26.56,18" transform="translate(-27.79 -153.38)"/><path class="cls-18" d="M336.59,617.64s3.9,17.42-12.1,25.67" transform="translate(-27.79 -153.38)"/><path d="M246.52,780.92c12.94-14.83,51.85-55.5,67.53-25.39,10,21.78-15.28,46.79-30.06,60.13-5.27,4.65-10.66,9-16.42,13.17a2.82,2.82,0,1,1-3.27-4.59c15.53-11.67,53.69-44.17,43.56-65.68-10.62-22.16-46.67,17.27-55.18,27.46-3.48,4.09-9.55-.89-6.16-5.1Z" transform="translate(-27.79 -153.38)"/><path d="M248.18,805.67c-2.11,8.71-3.23,24,6.37,28.48,4.78,2.14,10.83,1,15.85-.24,17.1-4,32.67-13.41,38.14-30.91,3.69-11.09,3.42-23,1.83-34.51a2.65,2.65,0,1,1,5.25-.68c1.36,12.18,1.43,24.94-2.47,36.73-6,19-22.92,30-41.41,34.6-9.84,2.92-21.45,3.43-27.73-6.34-3.69-5.65-4.61-12.62-4.79-19.16a66.3,66.3,0,0,1,.56-9.74,4.3,4.3,0,1,1,8.4,1.77Z" transform="translate(-27.79 -153.38)"/><path d="M302.27,954.58c-11.44-2.08-38.3-9.34-33.95-25.27,3.38-8,13.84-11.22,21.56-12.63,9.35-1.47,22.17-.73,27,9.12,2.35,4.87,1.54,10.76-.17,15.56a4,4,0,1,1-7.56-2.62c1.39-3.51,2-7.27.83-9.77-4.83-9.71-28.3-6.09-34.84.75a4,4,0,0,0-1.37,2.94v.54c1.19,7,11.16,10.84,17.25,13.23a94.6,94.6,0,0,0,12.13,3.48,2.38,2.38,0,0,1-.93,4.67Z" transform="translate(-27.79 -153.38)"/><path class="cls-19" d="M279,930.7s6,6,28.26,2.73" transform="translate(-27.79 -153.38)"/><path d="M512.73,756.41c5.94,10.6,4.77,22.77-3.79,31.56-10.06,10.61-22.9,16-35.88,6.51-6.19-4.16-6.92-13.67-7.48-20.42-.62-16.8,2.76-35.31,14.26-48.31a32.57,32.57,0,0,1,19.87-10.49c7.49-.78,9,10,1.58,11.27-18.09,1.53-25.05,22.68-27,38.25-.71,5.31-1.41,20.73,3.12,23.91,10.38,8.65,21.16,2.21,29.18-6.19,6.13-6.39,6.65-16.36,2.73-24.06a2,2,0,0,1,3.44-2Z" transform="translate(-27.79 -153.38)"/><path d="M526.16,730.76c-.25,4.23-2,8-4,11.69-1.12,1.7-2.65,5.61-5.24,3.8a2.1,2.1,0,0,1-.76-1.85c.12-3,5-19,9.33-15.26a2.15,2.15,0,0,1,.67,1.62Z" transform="translate(-27.79 -153.38)"/><path d="M530.34,491.12a260.45,260.45,0,0,0-51.75,61.64c-2.55,4.57,3.8,8.38,6.67,4.42a280.35,280.35,0,0,1,39.89-45q6.32-5.75,13-11Z" transform="translate(-27.79 -153.38)"/><path d="M948.78,688.58a15.1,15.1,0,0,0-1.27-3.35,12.13,12.13,0,0,0-1.33-1.92c-2.34-11.73-3-24.11-4-36.09-.09-1.2-.39-8.19-.49-9.59-.28-5.18-1-10.78-1.68-16a173.92,173.92,0,0,0-25.1-68c-31.39-49-85.06-79.27-140.44-93-7-1.74-14.4-1.71-21.6-1.26a207.73,207.73,0,0,1-36.55-1.35c-8-1.2-15.59-2.69-22.61-6.38-2-1.06-4.57-2.63-6.61-3.81-16.23-8.71-35.28-11.6-53.46-9.48-34.12,7.13-65.89,22.93-93.24,44.41l8,10.61a237.72,237.72,0,0,1,66.28-33.17,149.35,149.35,0,0,1,21.71-5.22A79.7,79.7,0,0,1,656,456a67.42,67.42,0,0,1,25.13,9.42,65.77,65.77,0,0,0,7.89,4.29c7.71,3.55,16.35,5.49,24.51,6.8,15.7,2.46,31.46,2.54,47.25,1.91a48.66,48.66,0,0,1,12.74,2c46.7,12.76,92.51,37.84,121,77.72,14,19.6,23,42.65,26.82,66.41.41,2,.62,5.25.94,7.23.81,5,.91,11.78,1.34,16.86.83,9.73,1.77,19.46,3.13,29.16a98.4,98.4,0,0,0,2,10.48,16.05,16.05,0,0,0,2.79,6.11c1,6.08.7,12.41.34,18.67-.71,9.08-2.39,18.61-6.08,26.74a39.67,39.67,0,0,1-5.24,8.32,157.87,157.87,0,0,0-10.58,17.31c-5.63,10.42-25.39,50.94-21.16,60.76a8.68,8.68,0,0,0,.75,1.54l.43.66,0-.06-.09-.14c1.56,3.26,2.35,8.62,2.21,12.66-.13,16.13-13,27-27.66,31.27-9.7,3-18.87,9.64-22.45,19.48a33.28,33.28,0,0,0-1.9,13.68c.13,7-2.82,14.09-6.57,20-9.87,14.89-24.15,18.78-37.92,6.2A69.7,69.7,0,0,1,786,920.55a4,4,0,0,0-6.56,4.56,76,76,0,0,0,10.13,12.71c14.45,14.59,33,14.74,47.5.28,8.1-8.29,13.87-18.93,15-30.65.12-1.47.06-3.47.13-4.21l0-1.53a17.66,17.66,0,0,1,10.12-14.57c3-1.67,6.5-2.37,9.76-3.4,9.58-3.23,18.83-8.8,25.33-16.91,9.72-12.05,12-29.05,6.94-43.52q-.31-.85-.72-1.71c1.61-7.26,4.78-14.41,7.71-21.41,5.88-13.4,12.76-27.26,20.83-39.14,1-1.41,2-2.84,3.09-4.17,6.06-7.49,9.54-17,11.69-26a118.63,118.63,0,0,0,2.64-16.35C950.21,706,950.66,697.17,948.78,688.58ZM902.4,819.52c-.17-.23-.29-.44.14.2a4,4,0,0,1,.2.35C902.63,819.88,902.52,819.7,902.4,819.52Zm33.73-121.94c.31.08.59.15.85.2l-.65-.11ZM941,680.23c-2.13-.4-1.64-.38,0,0Z" transform="translate(-27.79 -153.38)"/><polygon class="cls-20" points="533.98 378.26 543.18 366.99 506.26 322.01 497.04 331.53 533.98 378.26"/><polyline class="cls-15" points="643.08 382.42 661.98 430.88 676.27 426.85 659.68 371.59"/><path class="cls-15" d="M680.57,514.87s-7.66,7.15-9.7,3.07" transform="translate(-27.79 -153.38)"/><path class="cls-15" d="M635.3,714.87S624.83,727.42,626,730s37.57,55,44.89,54,7.66-7.15,6.3-11.58-30.64-35.91-33-51.49" transform="translate(-27.79 -153.38)"/><path class="cls-15" d="M809.26,596.2l-43.58,34.59s-.68,15,2.38,15.66,44.18-37.79,44.18-37.79" transform="translate(-27.79 -153.38)"/><path class="cls-15" d="M823,587.21s2,7.77,5,9" transform="translate(-27.79 -153.38)"/><polyline class="cls-15" points="784.45 567.53 749.41 630.61 761.14 642.76 798.06 584.2"/><path class="cls-15" d="M831,734.7s-5.53-8.93-9.79-11.32" transform="translate(-27.79 -153.38)"/><path class="cls-21" d="M947.13,644.32,897.6,720.91l14,8.13,45.7-76S947.89,644.32,947.13,644.32Z" transform="translate(-27.79 -153.38)"/><line class="cls-15" x1="526.91" y1="142.16" x2="531.38" y2="121.23"/><line class="cls-15" x1="531.32" y1="177.47" x2="543.18" y2="126.59"/><path class="cls-15" d="M592.23,274.62s-29.84,80.93-27.5,88.85" transform="translate(-27.79 -153.38)"/><path class="cls-15" d="M578.41,371.89s.8,16.34,30.68-86.81" transform="translate(-27.79 -153.38)"/><polyline class="cls-15" points="598.1 126.59 564.45 232.19 616.53 135.79 581.3 232.19"/><path class="cls-15" d="M614.1,407.29s40.18-108.43,47.84-111.74L618.28,421.68l52.59-117.26-37.53,115" transform="translate(-27.79 -153.38)"/><polyline class="cls-15" points="652.78 145.74 643.08 205.23 663.25 145.74 653.17 197.06 676.27 151.04 671.05 190.28"/><polygon class="cls-22" points="290.66 1079.6 356.87 1051.87 405.13 1117.74 361.9 1137.01 290.66 1079.6"/><path d="M737.87,1513.43c-30.24,36.65-58,75.77-80.86,117.5-9,16.66-17.18,33.93-23.27,51.88a182.1,182.1,0,0,0-7.11,27.33,3,3,0,0,1-6-.91,187.48,187.48,0,0,1,6.63-28.5c8.68-27.75,21.82-54,36.2-79.13a816.26,816.26,0,0,1,65.12-95.83c5.21-6.1,14.32,1.27,9.24,7.66Z" transform="translate(-27.79 -153.38)"/><path class="cls-19" d="M869.25,894.64c1.52,0,43.46-10.61,48-37.89" transform="translate(-27.79 -153.38)"/><path class="cls-19" d="M1002.64,606.39s45.85-19.33,60.25-44.72" transform="translate(-27.79 -153.38)"/><line class="cls-23" x1="799.08" y1="593.88" x2="763.84" y2="649.02"/><path class="cls-24" d="M321.55,790.94s-3.87,47.33-46.11,50.49" transform="translate(-27.79 -153.38)"/></svg>